<!DOCTYPE svg PUBLIC "-//W3C//DTD SVG 1.1//EN"
    "http://www.w3.org/Graphics/SVG/1.1/DTD/svg11.dtd" >
<svg contentScriptType="text/ecmascript" width="800"
     xmlns:xlink="http://www.w3.org/1999/xlink" zoomAndPan="magnify"
     style="height: 600px;" contentStyleType="text/css" height="600"
     preserveAspectRatio="xMidYMid meet" xmlns="http://www.w3.org/2000/svg"
     version="1.0">
    <style type="text/css" xml:space="preserve">.knime-label, .knime-axis-label, .knime-tick-label, .knime-label text, text.knime-axis-label, text.knime-tick-label { color: black; fill: black; font-size: 12px; }
.knime-legend-label, text.knime-legend-label { color: black; fill: black; font-size: 12px; font-weight: normal; }
.knime-tooltip-caption, .knime-tooltip-key, .knime-tooltip-value { color: black; fill: black; font-size: 12px; }
.knime-tooltip-key { font-weight: normal; }
.knime-tooltip-caption, .knime-tooltip-value { font-weight: bold; }</style><g transform="translate(70,10)">
        <rect x="-70" fill="rgb(255,255,255)" width="800" y="-10" height="600"
              fill-opacity="1.0"/>
        <rect fill="rgb(230,230,230)" width="710" height="505"
              fill-opacity="1.0"/>
        <g class="x axis knime-x knime-axis" transform="translate(0,505)">
            <g style="opacity: 1;" class="tick major knime-tick"
               transform="translate(0,0)">
                <line y2="-505" class="knime-tick-line" x2="0"
                      stroke="rgb(255,255,255)"/>
                <text x="0" dy=".71em" y="10" style="text-anchor: middle;"
                      class="knime-tick-label">
                    0.0
                </text>
            </g>
            <g style="opacity: 1;" class="tick major knime-tick"
               transform="translate(71,0)">
                <line y2="-505" class="knime-tick-line" x2="0"
                      stroke="rgb(255,255,255)"/>
                <text x="0" dy=".71em" y="10" style="text-anchor: middle;"
                      class="knime-tick-label">
                    0.1
                </text>
            </g>
            <g style="opacity: 1;" class="tick major knime-tick"
               transform="translate(142,0)">
                <line y2="-505" class="knime-tick-line" x2="0"
                      stroke="rgb(255,255,255)"/>
                <text x="0" dy=".71em" y="10" style="text-anchor: middle;"
                      class="knime-tick-label">
                    0.2
                </text>
            </g>
            <g style="opacity: 1;" class="tick major knime-tick"
               transform="translate(213,0)">
                <line y2="-505" class="knime-tick-line" x2="0"
                      stroke="rgb(255,255,255)"/>
                <text x="0" dy=".71em" y="10" style="text-anchor: middle;"
                      class="knime-tick-label">
                    0.3
                </text>
            </g>
            <g style="opacity: 1;" class="tick major knime-tick"
               transform="translate(284,0)">
                <line y2="-505" class="knime-tick-line" x2="0"
                      stroke="rgb(255,255,255)"/>
                <text x="0" dy=".71em" y="10" style="text-anchor: middle;"
                      class="knime-tick-label">
                    0.4
                </text>
            </g>
            <g style="opacity: 1;" class="tick major knime-tick"
               transform="translate(355,0)">
                <line y2="-505" class="knime-tick-line" x2="0"
                      stroke="rgb(255,255,255)"/>
                <text x="0" dy=".71em" y="10" style="text-anchor: middle;"
                      class="knime-tick-label">
                    0.5
                </text>
            </g>
            <g style="opacity: 1;" class="tick major knime-tick"
               transform="translate(426,0)">
                <line y2="-505" class="knime-tick-line" x2="0"
                      stroke="rgb(255,255,255)"/>
                <text x="0" dy=".71em" y="10" style="text-anchor: middle;"
                      class="knime-tick-label">
                    0.6
                </text>
            </g>
            <g style="opacity: 1;" class="tick major knime-tick"
               transform="translate(496.99999999999994,0)">
                <line y2="-505" class="knime-tick-line" x2="0"
                      stroke="rgb(255,255,255)"/>
                <text x="0" dy=".71em" y="10" style="text-anchor: middle;"
                      class="knime-tick-label">
                    0.7
                </text>
            </g>
            <g style="opacity: 1;" class="tick major knime-tick"
               transform="translate(568,0)">
                <line y2="-505" class="knime-tick-line" x2="0"
                      stroke="rgb(255,255,255)"/>
                <text x="0" dy=".71em" y="10" style="text-anchor: middle;"
                      class="knime-tick-label">
                    0.8
                </text>
            </g>
            <g style="opacity: 1;" class="tick major knime-tick"
               transform="translate(639,0)">
                <line y2="-505" class="knime-tick-line" x2="0"
                      stroke="rgb(255,255,255)"/>
                <text x="0" dy=".71em" y="10" style="text-anchor: middle;"
                      class="knime-tick-label">
                    0.9
                </text>
            </g>
            <g style="opacity: 1;" class="tick major knime-tick"
               transform="translate(710,0)">
                <line y2="-505" class="knime-tick-line" x2="0"
                      stroke="rgb(255,255,255)"/>
                <text x="0" dy=".71em" y="10" style="text-anchor: middle;"
                      class="knime-tick-label">
                    1.0
                </text>
            </g>
            <path fill="none" stroke-width="1" d="M0,0V0H710V0" class="domain"
                  stroke="rgb(255,255,255)"/>
        </g>
        <g class="y axis knime-y knime-axis">
            <g style="opacity: 1;" class="tick major knime-tick"
               transform="translate(0,505)">
                <line y2="0" class="knime-tick-line" x2="710"
                      stroke="rgb(255,255,255)"/>
                <text x="-10" dy=".32em" y="0" style="text-anchor: end;"
                      class="knime-tick-label">
                    0.0
                </text>
            </g>
            <g style="opacity: 1;" class="tick major knime-tick"
               transform="translate(0,454.5)">
                <line y2="0" class="knime-tick-line" x2="710"
                      stroke="rgb(255,255,255)"/>
                <text x="-10" dy=".32em" y="0" style="text-anchor: end;"
                      class="knime-tick-label">
                    0.1
                </text>
            </g>
            <g style="opacity: 1;" class="tick major knime-tick"
               transform="translate(0,404)">
                <line y2="0" class="knime-tick-line" x2="710"
                      stroke="rgb(255,255,255)"/>
                <text x="-10" dy=".32em" y="0" style="text-anchor: end;"
                      class="knime-tick-label">
                    0.2
                </text>
            </g>
            <g style="opacity: 1;" class="tick major knime-tick"
               transform="translate(0,353.5)">
                <line y2="0" class="knime-tick-line" x2="710"
                      stroke="rgb(255,255,255)"/>
                <text x="-10" dy=".32em" y="0" style="text-anchor: end;"
                      class="knime-tick-label">
                    0.3
                </text>
            </g>
            <g style="opacity: 1;" class="tick major knime-tick"
               transform="translate(0,303)">
                <line y2="0" class="knime-tick-line" x2="710"
                      stroke="rgb(255,255,255)"/>
                <text x="-10" dy=".32em" y="0" style="text-anchor: end;"
                      class="knime-tick-label">
                    0.4
                </text>
            </g>
            <g style="opacity: 1;" class="tick major knime-tick"
               transform="translate(0,252.5)">
                <line y2="0" class="knime-tick-line" x2="710"
                      stroke="rgb(255,255,255)"/>
                <text x="-10" dy=".32em" y="0" style="text-anchor: end;"
                      class="knime-tick-label">
                    0.5
                </text>
            </g>
            <g style="opacity: 1;" class="tick major knime-tick"
               transform="translate(0,202)">
                <line y2="0" class="knime-tick-line" x2="710"
                      stroke="rgb(255,255,255)"/>
                <text x="-10" dy=".32em" y="0" style="text-anchor: end;"
                      class="knime-tick-label">
                    0.6
                </text>
            </g>
            <g style="opacity: 1;" class="tick major knime-tick"
               transform="translate(0,151.5)">
                <line y2="0" class="knime-tick-line" x2="710"
                      stroke="rgb(255,255,255)"/>
                <text x="-10" dy=".32em" y="0" style="text-anchor: end;"
                      class="knime-tick-label">
                    0.7
                </text>
            </g>
            <g style="opacity: 1;" class="tick major knime-tick"
               transform="translate(0,101)">
                <line y2="0" class="knime-tick-line" x2="710"
                      stroke="rgb(255,255,255)"/>
                <text x="-10" dy=".32em" y="0" style="text-anchor: end;"
                      class="knime-tick-label">
                    0.8
                </text>
            </g>
            <g style="opacity: 1;" class="tick major knime-tick"
               transform="translate(0,50.5)">
                <line y2="0" class="knime-tick-line" x2="710"
                      stroke="rgb(255,255,255)"/>
                <text x="-10" dy=".32em" y="0" style="text-anchor: end;"
                      class="knime-tick-label">
                    0.9
                </text>
            </g>
            <g style="opacity: 1;" class="tick major knime-tick"
               transform="translate(0,0)">
                <line y2="0" class="knime-tick-line" x2="710"
                      stroke="rgb(255,255,255)"/>
                <text x="-10" dy=".32em" y="0" style="text-anchor: end;"
                      class="knime-tick-label">
                    1.0
                </text>
            </g>
            <path fill="none" stroke-width="1" d="M0,0H0V505H0" class="domain"
                  stroke="rgb(255,255,255)"/>
        </g>
        <text x="700" id="xtitle" y="550"
              class="x label knime-x knime-axis-label" text-anchor="end">
            False Positive Rate
        </text>
        <text dy=".75em" id="ytitle" y="-55"
              class="y label knime-y knime-axis-label" transform="rotate(-90)"
              text-anchor="end">
            True Positive Rate
        </text>
        <g class="knime-tooltip" transform="translate(517,480)">
            <text x="0" y="0" style="fill: rgb(31, 119, 180);"
                  class="knime-tooltip-key knime-tooltip-value knime-tooltip-color">
                P (Attrition=Yes)_logistic (0.879)
            </text>
        </g>
        <path style="stroke: rgb(31, 119, 180); fill: none; stroke-width: 2;"
              class="line"
              d="M0,505L0,494.25531914893617L0,483.51063829787233L0,472.7659574468085L0,462.02127659574467L0,451.27659574468083L0,440.531914893617L0,429.7872340425532L0,419.04255319148933L0,408.29787234042556L0,397.55319148936167L0,386.8085106382979L0,376.06382978723406L0,365.3191489361702L2.874493927125506,365.3191489361702L5.748987854251012,365.3191489361702L5.748987854251012,354.5744680851064L8.623481781376519,354.5744680851064L8.623481781376519,343.82978723404256L8.623481781376519,333.0851063829787L8.623481781376519,322.3404255319149L8.623481781376519,311.59574468085106L8.623481781376519,300.8510638297872L11.497975708502024,300.8510638297872L14.37246963562753,300.8510638297872L14.37246963562753,290.1063829787234L14.37246963562753,279.36170212765956L17.246963562753038,279.36170212765956L17.246963562753038,268.6170212765958L20.121457489878544,268.6170212765958L20.121457489878544,257.8723404255319L20.121457489878544,247.1276595744681L22.995951417004047,247.1276595744681L25.870445344129553,247.1276595744681L25.870445344129553,236.38297872340428L25.870445344129553,225.6382978723404L25.870445344129553,214.89361702127655L28.74493927125506,214.89361702127655L31.619433198380566,214.89361702127655L34.493927125506076,214.89361702127655L37.368421052631575,214.89361702127655L40.24291497975709,214.89361702127655L43.11740890688259,214.89361702127655L45.991902834008094,214.89361702127655L45.991902834008094,204.14893617021278L48.8663967611336,204.14893617021278L51.74089068825911,204.14893617021278L54.61538461538462,204.14893617021278L57.48987854251012,204.14893617021278L60.364372469635626,204.14893617021278L63.23886639676113,204.14893617021278L63.23886639676113,193.40425531914894L66.11336032388664,193.40425531914894L68.98785425101215,193.40425531914894L71.86234817813765,193.40425531914894L74.73684210526315,193.40425531914894L74.73684210526315,182.6595744680851L77.61133603238866,182.6595744680851L80.48582995951418,182.6595744680851L83.36032388663968,182.6595744680851L86.23481781376518,182.6595744680851L86.23481781376518,171.91489361702128L89.10931174089067,171.91489361702128L91.98380566801619,171.91489361702128L94.8582995951417,171.91489361702128L97.7327935222672,171.91489361702128L100.60728744939271,171.91489361702128L100.60728744939271,161.17021276595744L103.48178137651821,161.17021276595744L106.35627530364373,161.17021276595744L109.23076923076924,161.17021276595744L112.10526315789473,161.17021276595744L114.97975708502024,161.17021276595744L117.85425101214575,161.17021276595744L120.72874493927125,161.17021276595744L123.60323886639677,161.17021276595744L123.60323886639677,150.4255319148936L126.47773279352226,150.4255319148936L129.35222672064776,150.4255319148936L132.22672064777328,150.4255319148936L135.1012145748988,150.4255319148936L137.9757085020243,150.4255319148936L137.9757085020243,139.68085106382978L140.85020242914982,139.68085106382978L140.85020242914982,128.936170212766L140.85020242914982,118.19148936170211L143.7246963562753,118.19148936170211L143.7246963562753,107.44680851063828L143.7246963562753,96.7021276595745L146.59919028340082,96.7021276595745L149.4736842105263,96.7021276595745L152.34817813765181,96.7021276595745L155.22267206477733,96.7021276595745L158.09716599190284,96.7021276595745L160.97165991902835,96.7021276595745L163.84615384615387,96.7021276595745L166.72064777327935,96.7021276595745L169.59514170040487,96.7021276595745L172.46963562753035,96.7021276595745L175.34412955465586,96.7021276595745L175.34412955465586,85.95744680851067L178.21862348178135,85.95744680851067L181.0931174089069,85.95744680851067L183.96761133603238,85.95744680851067L186.8421052631579,85.95744680851067L186.8421052631579,75.21276595744678L189.7165991902834,75.21276595744678L192.59109311740892,75.21276595744678L195.4655870445344,75.21276595744678L198.34008097165994,75.21276595744678L198.34008097165994,64.46808510638294L201.21457489878543,64.46808510638294L204.0890688259109,64.46808510638294L206.96356275303643,64.46808510638294L209.83805668016194,64.46808510638294L212.71255060728745,64.46808510638294L215.58704453441294,64.46808510638294L218.46153846153848,64.46808510638294L221.33603238866397,64.46808510638294L224.21052631578945,64.46808510638294L224.21052631578945,53.72340425531917L227.085020242915,53.72340425531917L229.95951417004048,53.72340425531917L229.95951417004048,42.978723404255334L232.834008097166,42.978723404255334L235.7085020242915,42.978723404255334L238.58299595141702,42.978723404255334L241.4574898785425,42.978723404255334L244.331983805668,42.978723404255334L247.20647773279353,42.978723404255334L250.08097165991902,42.978723404255334L252.95546558704453,42.978723404255334L255.82995951417004,42.978723404255334L258.7044534412955,42.978723404255334L261.57894736842104,42.978723404255334L264.45344129554655,42.978723404255334L267.32793522267207,42.978723404255334L270.2024291497976,42.978723404255334L273.0769230769231,42.978723404255334L275.9514170040486,42.978723404255334L278.82591093117406,42.978723404255334L281.70040485829963,42.978723404255334L284.5748987854251,42.978723404255334L287.4493927125506,42.978723404255334L290.3238866396761,42.978723404255334L293.19838056680163,42.978723404255334L296.07287449392715,42.978723404255334L298.9473684210526,42.978723404255334L301.8218623481782,42.978723404255334L304.69635627530363,42.978723404255334L307.57085020242914,42.978723404255334L310.44534412955466,42.978723404255334L313.31983805668017,42.978723404255334L316.1943319838057,42.978723404255334L319.0688259109312,42.978723404255334L321.9433198380567,42.978723404255334L324.81781376518217,42.978723404255334L327.69230769230774,42.978723404255334L330.5668016194332,42.978723404255334L333.4412955465587,42.978723404255334L336.3157894736842,42.978723404255334L339.19028340080973,42.978723404255334L342.06477732793525,42.978723404255334L344.9392712550607,42.978723404255334L347.8137651821863,42.978723404255334L350.68825910931173,42.978723404255334L353.56275303643724,42.978723404255334L353.56275303643724,32.2340425531915L356.4372469635627,32.2340425531915L359.31174089068827,32.2340425531915L362.1862348178138,32.2340425531915L362.1862348178138,21.48936170212761L365.06072874493924,21.48936170212761L367.93522267206475,21.48936170212761L370.8097165991903,21.48936170212761L373.6842105263158,21.48936170212761L376.5587044534413,21.48936170212761L379.4331983805668,21.48936170212761L382.30769230769226,21.48936170212761L385.18218623481783,21.48936170212761L388.05668016194335,21.48936170212761L390.9311740890688,21.48936170212761L393.8056680161943,21.48936170212761L396.6801619433199,21.48936170212761L399.55465587044534,21.48936170212761L402.42914979757086,21.48936170212761L405.3036437246963,21.48936170212761L408.1781376518218,21.48936170212761L411.0526315789474,21.48936170212761L413.92712550607285,21.48936170212761L416.80161943319837,21.48936170212761L419.6761133603239,21.48936170212761L422.55060728744934,21.48936170212761L425.4251012145749,21.48936170212761L428.2995951417004,21.48936170212761L431.1740890688259,21.48936170212761L431.1740890688259,10.744680851063833L434.0485829959514,10.744680851063833L436.92307692307696,10.744680851063833L439.7975708502024,10.744680851063833L442.67206477732793,10.744680851063833L445.54655870445345,10.744680851063833L445.54655870445345,0L448.4210526315789,0L451.2955465587045,0L454.17004048583,0L457.04453441295544,0L459.91902834008096,0L462.7935222672065,0L465.668016194332,0L468.5425101214575,0L471.417004048583,0L474.29149797570847,0L477.16599190283404,0L480.04048582995955,0L482.914979757085,0L485.7894736842105,0L488.663967611336,0L491.53846153846155,0L494.41295546558706,0L497.2874493927125,0L500.16194331983803,0L503.0364372469636,0L505.91093117408906,0L508.78542510121457,0L511.6599190283401,0L514.5344129554655,0L517.408906882591,0L520.2834008097166,0L523.1578947368421,0L526.0323886639676,0L528.9068825910931,0L531.7813765182186,0L534.6558704453441,0L537.5303643724696,0L540.4048582995952,0L543.2793522267207,0L546.1538461538462,0L549.0283400809716,0L551.9028340080972,0L554.7773279352227,0L557.6518218623481,0L560.5263157894736,0L563.4008097165993,0L566.2753036437247,0L569.1497975708502,0L572.0242914979757,0L574.8987854251012,0L577.7732793522267,0L580.6477732793522,0L583.5222672064777,0L586.3967611336033,0L589.2712550607287,0L592.1457489878543,0L595.0202429149798,0L597.8947368421052,0L600.7692307692307,0L603.6437246963563,0L606.5182186234817,0L609.3927125506073,0L612.2672064777328,0L615.1417004048583,0L618.0161943319838,0L620.8906882591093,0L623.7651821862348,0L626.6396761133603,0L629.5141700404859,0L632.3886639676114,0L635.2631578947369,0L638.1376518218624,0L641.0121457489878,0L643.8866396761134,0L646.7611336032389,0L649.6356275303643,0L652.5101214574898,0L655.3846153846155,0L658.2591093117409,0L661.1336032388664,0L664.0080971659919,0L666.8825910931174,0L669.7570850202429,0L672.6315789473684,0L675.506072874494,0L678.3805668016195,0L681.2550607287449,0L684.1295546558705,0L687.004048582996,0L689.8785425101214,0L692.7530364372469,0L695.6275303643725,0L698.502024291498,0L701.3765182186235,0L704.251012145749,0L707.1255060728745,0L710,0"/>
        <g class="knime-legend" transform="translate(0,575)">
            <text x="20" class="knime-legend-label">
                P (Attrition=Yes)_logistic
            </text>
            <circle fill="#1f77b4" r="5" cx="5" class="knime-legend-symbol"
                    cy="-5"/>
        </g>
        <path style="stroke: black; fill: none; stroke-width: 2;" class="line"
              d="M0,505L710,0"/>
        <g class="knime-legend" transform="translate(160,575)">
            <text x="20" class="knime-legend-label">
                random
            </text>
            <circle fill="black" r="5" cx="5" class="knime-legend-symbol"
                    cy="-5"/>
        </g>
    </g>
    <g transform="translate(70,0)"/>
</svg>