<!DOCTYPE svg PUBLIC "-//W3C//DTD SVG 1.1//EN"
    "http://www.w3.org/Graphics/SVG/1.1/DTD/svg11.dtd" >
<svg contentScriptType="text/ecmascript" width="800"
     xmlns:xlink="http://www.w3.org/1999/xlink" zoomAndPan="magnify"
     style="height: 600px;" contentStyleType="text/css" height="600"
     preserveAspectRatio="xMidYMid meet" xmlns="http://www.w3.org/2000/svg"
     version="1.0">
    <style type="text/css" xml:space="preserve">.knime-label, .knime-axis-label, .knime-tick-label, .knime-label text, text.knime-axis-label, text.knime-tick-label { color: black; fill: black; font-size: 12px; }
.knime-legend-label, text.knime-legend-label { color: black; fill: black; font-size: 12px; font-weight: normal; }
.knime-tooltip-caption, .knime-tooltip-key, .knime-tooltip-value { color: black; fill: black; font-size: 12px; }
.knime-tooltip-key { font-weight: normal; }
.knime-tooltip-caption, .knime-tooltip-value { font-weight: bold; }</style><g transform="translate(70,10)">
        <rect x="-70" fill="rgb(255,255,255)" width="800" y="-10" height="600"
              fill-opacity="1.0"/>
        <rect fill="rgb(230,230,230)" width="710" height="505"
              fill-opacity="1.0"/>
        <g class="x axis knime-x knime-axis" transform="translate(0,505)">
            <g style="opacity: 1;" class="tick major knime-tick"
               transform="translate(0,0)">
                <line y2="-505" class="knime-tick-line" x2="0"
                      stroke="rgb(255,255,255)"/>
                <text x="0" dy=".71em" y="10" style="text-anchor: middle;"
                      class="knime-tick-label">
                    0.0
                </text>
            </g>
            <g style="opacity: 1;" class="tick major knime-tick"
               transform="translate(71,0)">
                <line y2="-505" class="knime-tick-line" x2="0"
                      stroke="rgb(255,255,255)"/>
                <text x="0" dy=".71em" y="10" style="text-anchor: middle;"
                      class="knime-tick-label">
                    0.1
                </text>
            </g>
            <g style="opacity: 1;" class="tick major knime-tick"
               transform="translate(142,0)">
                <line y2="-505" class="knime-tick-line" x2="0"
                      stroke="rgb(255,255,255)"/>
                <text x="0" dy=".71em" y="10" style="text-anchor: middle;"
                      class="knime-tick-label">
                    0.2
                </text>
            </g>
            <g style="opacity: 1;" class="tick major knime-tick"
               transform="translate(213,0)">
                <line y2="-505" class="knime-tick-line" x2="0"
                      stroke="rgb(255,255,255)"/>
                <text x="0" dy=".71em" y="10" style="text-anchor: middle;"
                      class="knime-tick-label">
                    0.3
                </text>
            </g>
            <g style="opacity: 1;" class="tick major knime-tick"
               transform="translate(284,0)">
                <line y2="-505" class="knime-tick-line" x2="0"
                      stroke="rgb(255,255,255)"/>
                <text x="0" dy=".71em" y="10" style="text-anchor: middle;"
                      class="knime-tick-label">
                    0.4
                </text>
            </g>
            <g style="opacity: 1;" class="tick major knime-tick"
               transform="translate(355,0)">
                <line y2="-505" class="knime-tick-line" x2="0"
                      stroke="rgb(255,255,255)"/>
                <text x="0" dy=".71em" y="10" style="text-anchor: middle;"
                      class="knime-tick-label">
                    0.5
                </text>
            </g>
            <g style="opacity: 1;" class="tick major knime-tick"
               transform="translate(426,0)">
                <line y2="-505" class="knime-tick-line" x2="0"
                      stroke="rgb(255,255,255)"/>
                <text x="0" dy=".71em" y="10" style="text-anchor: middle;"
                      class="knime-tick-label">
                    0.6
                </text>
            </g>
            <g style="opacity: 1;" class="tick major knime-tick"
               transform="translate(496.99999999999994,0)">
                <line y2="-505" class="knime-tick-line" x2="0"
                      stroke="rgb(255,255,255)"/>
                <text x="0" dy=".71em" y="10" style="text-anchor: middle;"
                      class="knime-tick-label">
                    0.7
                </text>
            </g>
            <g style="opacity: 1;" class="tick major knime-tick"
               transform="translate(568,0)">
                <line y2="-505" class="knime-tick-line" x2="0"
                      stroke="rgb(255,255,255)"/>
                <text x="0" dy=".71em" y="10" style="text-anchor: middle;"
                      class="knime-tick-label">
                    0.8
                </text>
            </g>
            <g style="opacity: 1;" class="tick major knime-tick"
               transform="translate(639,0)">
                <line y2="-505" class="knime-tick-line" x2="0"
                      stroke="rgb(255,255,255)"/>
                <text x="0" dy=".71em" y="10" style="text-anchor: middle;"
                      class="knime-tick-label">
                    0.9
                </text>
            </g>
            <g style="opacity: 1;" class="tick major knime-tick"
               transform="translate(710,0)">
                <line y2="-505" class="knime-tick-line" x2="0"
                      stroke="rgb(255,255,255)"/>
                <text x="0" dy=".71em" y="10" style="text-anchor: middle;"
                      class="knime-tick-label">
                    1.0
                </text>
            </g>
            <path fill="none" stroke-width="1" d="M0,0V0H710V0" class="domain"
                  stroke="rgb(255,255,255)"/>
        </g>
        <g class="y axis knime-y knime-axis">
            <g style="opacity: 1;" class="tick major knime-tick"
               transform="translate(0,505)">
                <line y2="0" class="knime-tick-line" x2="710"
                      stroke="rgb(255,255,255)"/>
                <text x="-10" dy=".32em" y="0" style="text-anchor: end;"
                      class="knime-tick-label">
                    0.0
                </text>
            </g>
            <g style="opacity: 1;" class="tick major knime-tick"
               transform="translate(0,454.5)">
                <line y2="0" class="knime-tick-line" x2="710"
                      stroke="rgb(255,255,255)"/>
                <text x="-10" dy=".32em" y="0" style="text-anchor: end;"
                      class="knime-tick-label">
                    0.1
                </text>
            </g>
            <g style="opacity: 1;" class="tick major knime-tick"
               transform="translate(0,404)">
                <line y2="0" class="knime-tick-line" x2="710"
                      stroke="rgb(255,255,255)"/>
                <text x="-10" dy=".32em" y="0" style="text-anchor: end;"
                      class="knime-tick-label">
                    0.2
                </text>
            </g>
            <g style="opacity: 1;" class="tick major knime-tick"
               transform="translate(0,353.5)">
                <line y2="0" class="knime-tick-line" x2="710"
                      stroke="rgb(255,255,255)"/>
                <text x="-10" dy=".32em" y="0" style="text-anchor: end;"
                      class="knime-tick-label">
                    0.3
                </text>
            </g>
            <g style="opacity: 1;" class="tick major knime-tick"
               transform="translate(0,303)">
                <line y2="0" class="knime-tick-line" x2="710"
                      stroke="rgb(255,255,255)"/>
                <text x="-10" dy=".32em" y="0" style="text-anchor: end;"
                      class="knime-tick-label">
                    0.4
                </text>
            </g>
            <g style="opacity: 1;" class="tick major knime-tick"
               transform="translate(0,252.5)">
                <line y2="0" class="knime-tick-line" x2="710"
                      stroke="rgb(255,255,255)"/>
                <text x="-10" dy=".32em" y="0" style="text-anchor: end;"
                      class="knime-tick-label">
                    0.5
                </text>
            </g>
            <g style="opacity: 1;" class="tick major knime-tick"
               transform="translate(0,202)">
                <line y2="0" class="knime-tick-line" x2="710"
                      stroke="rgb(255,255,255)"/>
                <text x="-10" dy=".32em" y="0" style="text-anchor: end;"
                      class="knime-tick-label">
                    0.6
                </text>
            </g>
            <g style="opacity: 1;" class="tick major knime-tick"
               transform="translate(0,151.5)">
                <line y2="0" class="knime-tick-line" x2="710"
                      stroke="rgb(255,255,255)"/>
                <text x="-10" dy=".32em" y="0" style="text-anchor: end;"
                      class="knime-tick-label">
                    0.7
                </text>
            </g>
            <g style="opacity: 1;" class="tick major knime-tick"
               transform="translate(0,101)">
                <line y2="0" class="knime-tick-line" x2="710"
                      stroke="rgb(255,255,255)"/>
                <text x="-10" dy=".32em" y="0" style="text-anchor: end;"
                      class="knime-tick-label">
                    0.8
                </text>
            </g>
            <g style="opacity: 1;" class="tick major knime-tick"
               transform="translate(0,50.5)">
                <line y2="0" class="knime-tick-line" x2="710"
                      stroke="rgb(255,255,255)"/>
                <text x="-10" dy=".32em" y="0" style="text-anchor: end;"
                      class="knime-tick-label">
                    0.9
                </text>
            </g>
            <g style="opacity: 1;" class="tick major knime-tick"
               transform="translate(0,0)">
                <line y2="0" class="knime-tick-line" x2="710"
                      stroke="rgb(255,255,255)"/>
                <text x="-10" dy=".32em" y="0" style="text-anchor: end;"
                      class="knime-tick-label">
                    1.0
                </text>
            </g>
            <path fill="none" stroke-width="1" d="M0,0H0V505H0" class="domain"
                  stroke="rgb(255,255,255)"/>
        </g>
        <text x="700" id="xtitle" y="550"
              class="x label knime-x knime-axis-label" text-anchor="end">
            False Positive Rate
        </text>
        <text dy=".75em" id="ytitle" y="-55"
              class="y label knime-y knime-axis-label" transform="rotate(-90)"
              text-anchor="end">
            True Positive Rate
        </text>
        <g class="knime-tooltip" transform="translate(528,480)">
            <text x="0" y="0" style="fill: rgb(31, 119, 180);"
                  class="knime-tooltip-key knime-tooltip-value knime-tooltip-color">
                P (Attrition=Yes)_naive (0.817)
            </text>
        </g>
        <path style="stroke: rgb(31, 119, 180); fill: none; stroke-width: 2;"
              class="line"
              d="M0,505L0,494.25531914893617L0,483.51063829787233L2.874493927125506,483.51063829787233L2.874493927125506,472.7659574468085L2.874493927125506,462.02127659574467L2.874493927125506,451.27659574468083L2.874493927125506,440.531914893617L2.874493927125506,429.7872340425532L2.874493927125506,419.04255319148933L2.874493927125506,408.29787234042556L2.874493927125506,397.55319148936167L2.874493927125506,386.8085106382979L2.874493927125506,376.06382978723406L5.748987854251012,376.06382978723406L5.748987854251012,365.3191489361702L5.748987854251012,354.5744680851064L5.748987854251012,343.82978723404256L8.623481781376519,343.82978723404256L11.497975708502024,343.82978723404256L11.497975708502024,333.0851063829787L14.37246963562753,333.0851063829787L17.246963562753038,333.0851063829787L20.121457489878544,333.0851063829787L22.995951417004047,333.0851063829787L25.870445344129553,333.0851063829787L28.74493927125506,333.0851063829787L28.74493927125506,322.3404255319149L31.619433198380566,322.3404255319149L34.493927125506076,322.3404255319149L37.368421052631575,322.3404255319149L40.24291497975709,322.3404255319149L43.11740890688259,322.3404255319149L43.11740890688259,311.59574468085106L45.991902834008094,311.59574468085106L48.8663967611336,311.59574468085106L51.74089068825911,311.59574468085106L54.61538461538462,311.59574468085106L54.61538461538462,300.8510638297872L54.61538461538462,290.1063829787234L57.48987854251012,290.1063829787234L60.364372469635626,290.1063829787234L63.23886639676113,290.1063829787234L66.11336032388664,290.1063829787234L66.11336032388664,279.36170212765956L68.98785425101215,279.36170212765956L71.86234817813765,279.36170212765956L74.73684210526315,279.36170212765956L77.61133603238866,279.36170212765956L77.61133603238866,268.6170212765958L77.61133603238866,257.8723404255319L80.48582995951418,257.8723404255319L83.36032388663968,257.8723404255319L83.36032388663968,247.1276595744681L86.23481781376518,247.1276595744681L86.23481781376518,236.38297872340428L86.23481781376518,225.6382978723404L86.23481781376518,214.89361702127655L89.10931174089067,214.89361702127655L91.98380566801619,214.89361702127655L94.8582995951417,214.89361702127655L94.8582995951417,204.14893617021278L97.7327935222672,204.14893617021278L100.60728744939271,204.14893617021278L103.48178137651821,204.14893617021278L103.48178137651821,193.40425531914894L103.48178137651821,182.6595744680851L106.35627530364373,182.6595744680851L109.23076923076924,182.6595744680851L112.10526315789473,182.6595744680851L114.97975708502024,182.6595744680851L117.85425101214575,182.6595744680851L120.72874493927125,182.6595744680851L123.60323886639677,182.6595744680851L126.47773279352226,182.6595744680851L129.35222672064776,182.6595744680851L132.22672064777328,182.6595744680851L135.1012145748988,182.6595744680851L137.9757085020243,182.6595744680851L137.9757085020243,171.91489361702128L137.9757085020243,161.17021276595744L137.9757085020243,150.4255319148936L137.9757085020243,139.68085106382978L140.85020242914982,139.68085106382978L143.7246963562753,139.68085106382978L146.59919028340082,139.68085106382978L149.4736842105263,139.68085106382978L152.34817813765181,139.68085106382978L155.22267206477733,139.68085106382978L158.09716599190284,139.68085106382978L160.97165991902835,139.68085106382978L163.84615384615387,139.68085106382978L166.72064777327935,139.68085106382978L169.59514170040487,139.68085106382978L172.46963562753035,139.68085106382978L175.34412955465586,139.68085106382978L178.21862348178135,139.68085106382978L181.0931174089069,139.68085106382978L183.96761133603238,139.68085106382978L186.8421052631579,139.68085106382978L189.7165991902834,139.68085106382978L189.7165991902834,128.936170212766L192.59109311740892,128.936170212766L195.4655870445344,128.936170212766L198.34008097165994,128.936170212766L201.21457489878543,128.936170212766L204.0890688259109,128.936170212766L206.96356275303643,128.936170212766L209.83805668016194,128.936170212766L212.71255060728745,128.936170212766L215.58704453441294,128.936170212766L218.46153846153848,128.936170212766L221.33603238866397,128.936170212766L224.21052631578945,128.936170212766L227.085020242915,128.936170212766L229.95951417004048,128.936170212766L232.834008097166,128.936170212766L235.7085020242915,128.936170212766L238.58299595141702,128.936170212766L241.4574898785425,128.936170212766L241.4574898785425,118.19148936170211L244.331983805668,118.19148936170211L247.20647773279353,118.19148936170211L250.08097165991902,118.19148936170211L252.95546558704453,118.19148936170211L255.82995951417004,118.19148936170211L255.82995951417004,107.44680851063828L255.82995951417004,96.7021276595745L258.7044534412955,96.7021276595745L261.57894736842104,96.7021276595745L264.45344129554655,96.7021276595745L267.32793522267207,96.7021276595745L270.2024291497976,96.7021276595745L273.0769230769231,96.7021276595745L275.9514170040486,96.7021276595745L275.9514170040486,85.95744680851067L278.82591093117406,85.95744680851067L281.70040485829963,85.95744680851067L284.5748987854251,85.95744680851067L287.4493927125506,85.95744680851067L290.3238866396761,85.95744680851067L293.19838056680163,85.95744680851067L296.07287449392715,85.95744680851067L298.9473684210526,85.95744680851067L301.8218623481782,85.95744680851067L304.69635627530363,85.95744680851067L304.69635627530363,75.21276595744678L307.57085020242914,75.21276595744678L310.44534412955466,75.21276595744678L313.31983805668017,75.21276595744678L316.1943319838057,75.21276595744678L319.0688259109312,75.21276595744678L319.0688259109312,64.46808510638294L321.9433198380567,64.46808510638294L324.81781376518217,64.46808510638294L327.69230769230774,64.46808510638294L330.5668016194332,64.46808510638294L333.4412955465587,64.46808510638294L336.3157894736842,64.46808510638294L339.19028340080973,64.46808510638294L339.19028340080973,53.72340425531917L342.06477732793525,53.72340425531917L342.06477732793525,42.978723404255334L344.9392712550607,42.978723404255334L347.8137651821863,42.978723404255334L350.68825910931173,42.978723404255334L353.56275303643724,42.978723404255334L356.4372469635627,42.978723404255334L359.31174089068827,42.978723404255334L362.1862348178138,42.978723404255334L365.06072874493924,42.978723404255334L367.93522267206475,42.978723404255334L370.8097165991903,42.978723404255334L373.6842105263158,42.978723404255334L376.5587044534413,42.978723404255334L379.4331983805668,42.978723404255334L382.30769230769226,42.978723404255334L385.18218623481783,42.978723404255334L388.05668016194335,42.978723404255334L390.9311740890688,42.978723404255334L393.8056680161943,42.978723404255334L393.8056680161943,32.2340425531915L396.6801619433199,32.2340425531915L399.55465587044534,32.2340425531915L402.42914979757086,32.2340425531915L405.3036437246963,32.2340425531915L408.1781376518218,32.2340425531915L411.0526315789474,32.2340425531915L413.92712550607285,32.2340425531915L416.80161943319837,32.2340425531915L419.6761133603239,32.2340425531915L422.55060728744934,32.2340425531915L425.4251012145749,32.2340425531915L428.2995951417004,32.2340425531915L431.1740890688259,32.2340425531915L431.1740890688259,21.48936170212761L434.0485829959514,21.48936170212761L436.92307692307696,21.48936170212761L439.7975708502024,21.48936170212761L442.67206477732793,21.48936170212761L445.54655870445345,21.48936170212761L448.4210526315789,21.48936170212761L451.2955465587045,21.48936170212761L454.17004048583,21.48936170212761L457.04453441295544,21.48936170212761L459.91902834008096,21.48936170212761L462.7935222672065,21.48936170212761L465.668016194332,21.48936170212761L468.5425101214575,21.48936170212761L471.417004048583,21.48936170212761L474.29149797570847,21.48936170212761L477.16599190283404,21.48936170212761L477.16599190283404,10.744680851063833L480.04048582995955,10.744680851063833L482.914979757085,10.744680851063833L485.7894736842105,10.744680851063833L488.663967611336,10.744680851063833L491.53846153846155,10.744680851063833L494.41295546558706,10.744680851063833L497.2874493927125,10.744680851063833L500.16194331983803,10.744680851063833L503.0364372469636,10.744680851063833L505.91093117408906,10.744680851063833L508.78542510121457,10.744680851063833L511.6599190283401,10.744680851063833L514.5344129554655,10.744680851063833L517.408906882591,10.744680851063833L520.2834008097166,10.744680851063833L523.1578947368421,10.744680851063833L526.0323886639676,10.744680851063833L528.9068825910931,10.744680851063833L531.7813765182186,10.744680851063833L534.6558704453441,10.744680851063833L537.5303643724696,10.744680851063833L540.4048582995952,10.744680851063833L543.2793522267207,10.744680851063833L546.1538461538462,10.744680851063833L549.0283400809716,10.744680851063833L551.9028340080972,10.744680851063833L554.7773279352227,10.744680851063833L557.6518218623481,10.744680851063833L560.5263157894736,10.744680851063833L563.4008097165993,10.744680851063833L566.2753036437247,10.744680851063833L569.1497975708502,10.744680851063833L572.0242914979757,10.744680851063833L574.8987854251012,10.744680851063833L577.7732793522267,10.744680851063833L580.6477732793522,10.744680851063833L583.5222672064777,10.744680851063833L586.3967611336033,10.744680851063833L589.2712550607287,10.744680851063833L592.1457489878543,10.744680851063833L595.0202429149798,10.744680851063833L597.8947368421052,10.744680851063833L600.7692307692307,10.744680851063833L603.6437246963563,10.744680851063833L606.5182186234817,10.744680851063833L609.3927125506073,10.744680851063833L612.2672064777328,10.744680851063833L612.2672064777328,0L615.1417004048583,0L618.0161943319838,0L620.8906882591093,0L623.7651821862348,0L626.6396761133603,0L629.5141700404859,0L632.3886639676114,0L635.2631578947369,0L638.1376518218624,0L641.0121457489878,0L643.8866396761134,0L646.7611336032389,0L649.6356275303643,0L652.5101214574898,0L655.3846153846155,0L658.2591093117409,0L661.1336032388664,0L664.0080971659919,0L666.8825910931174,0L669.7570850202429,0L672.6315789473684,0L675.506072874494,0L678.3805668016195,0L681.2550607287449,0L684.1295546558705,0L687.004048582996,0L689.8785425101214,0L692.7530364372469,0L695.6275303643725,0L698.502024291498,0L701.3765182186235,0L704.251012145749,0L707.1255060728745,0L710,0"/>
        <g class="knime-legend" transform="translate(0,575)">
            <text x="20" class="knime-legend-label">
                P (Attrition=Yes)_naive
            </text>
            <circle fill="#1f77b4" r="5" cx="5" class="knime-legend-symbol"
                    cy="-5"/>
        </g>
        <path style="stroke: black; fill: none; stroke-width: 2;" class="line"
              d="M0,505L710,0"/>
        <g class="knime-legend" transform="translate(152,575)">
            <text x="20" class="knime-legend-label">
                random
            </text>
            <circle fill="black" r="5" cx="5" class="knime-legend-symbol"
                    cy="-5"/>
        </g>
    </g>
    <g transform="translate(70,0)"/>
</svg>