<!DOCTYPE svg PUBLIC "-//W3C//DTD SVG 1.1//EN"
    "http://www.w3.org/Graphics/SVG/1.1/DTD/svg11.dtd" >
<svg contentScriptType="text/ecmascript" width="800"
     xmlns:xlink="http://www.w3.org/1999/xlink" zoomAndPan="magnify"
     style="height: 600px;" contentStyleType="text/css" height="600"
     preserveAspectRatio="xMidYMid meet" xmlns="http://www.w3.org/2000/svg"
     version="1.0">
    <style type="text/css" xml:space="preserve">.knime-label, .knime-axis-label, .knime-tick-label, .knime-label text, text.knime-axis-label, text.knime-tick-label { color: black; fill: black; font-size: 12px; }
.knime-legend-label, text.knime-legend-label { color: black; fill: black; font-size: 12px; font-weight: normal; }
.knime-tooltip-caption, .knime-tooltip-key, .knime-tooltip-value { color: black; fill: black; font-size: 12px; }
.knime-tooltip-key { font-weight: normal; }
.knime-tooltip-caption, .knime-tooltip-value { font-weight: bold; }</style><g transform="translate(70,10)">
        <rect x="-70" fill="rgb(255,255,255)" width="800" fill-opacity="1.0"
              height="600" y="-10"/>
        <rect fill="rgb(230,230,230)" width="710" fill-opacity="1.0"
              height="505"/>
        <g class="x axis knime-x knime-axis" transform="translate(0,505)">
            <g class="tick major knime-tick" style="opacity: 1;"
               transform="translate(0,0)">
                <line y2="-505" class="knime-tick-line" x2="0"
                      stroke="rgb(255,255,255)"/>
                <text x="0" dy=".71em" y="10" style="text-anchor: middle;"
                      class="knime-tick-label">
                    0.0
                </text>
            </g>
            <g class="tick major knime-tick" style="opacity: 1;"
               transform="translate(71,0)">
                <line y2="-505" class="knime-tick-line" x2="0"
                      stroke="rgb(255,255,255)"/>
                <text x="0" dy=".71em" y="10" style="text-anchor: middle;"
                      class="knime-tick-label">
                    0.1
                </text>
            </g>
            <g class="tick major knime-tick" style="opacity: 1;"
               transform="translate(142,0)">
                <line y2="-505" class="knime-tick-line" x2="0"
                      stroke="rgb(255,255,255)"/>
                <text x="0" dy=".71em" y="10" style="text-anchor: middle;"
                      class="knime-tick-label">
                    0.2
                </text>
            </g>
            <g class="tick major knime-tick" style="opacity: 1;"
               transform="translate(213,0)">
                <line y2="-505" class="knime-tick-line" x2="0"
                      stroke="rgb(255,255,255)"/>
                <text x="0" dy=".71em" y="10" style="text-anchor: middle;"
                      class="knime-tick-label">
                    0.3
                </text>
            </g>
            <g class="tick major knime-tick" style="opacity: 1;"
               transform="translate(284,0)">
                <line y2="-505" class="knime-tick-line" x2="0"
                      stroke="rgb(255,255,255)"/>
                <text x="0" dy=".71em" y="10" style="text-anchor: middle;"
                      class="knime-tick-label">
                    0.4
                </text>
            </g>
            <g class="tick major knime-tick" style="opacity: 1;"
               transform="translate(355,0)">
                <line y2="-505" class="knime-tick-line" x2="0"
                      stroke="rgb(255,255,255)"/>
                <text x="0" dy=".71em" y="10" style="text-anchor: middle;"
                      class="knime-tick-label">
                    0.5
                </text>
            </g>
            <g class="tick major knime-tick" style="opacity: 1;"
               transform="translate(426,0)">
                <line y2="-505" class="knime-tick-line" x2="0"
                      stroke="rgb(255,255,255)"/>
                <text x="0" dy=".71em" y="10" style="text-anchor: middle;"
                      class="knime-tick-label">
                    0.6
                </text>
            </g>
            <g class="tick major knime-tick" style="opacity: 1;"
               transform="translate(496.99999999999994,0)">
                <line y2="-505" class="knime-tick-line" x2="0"
                      stroke="rgb(255,255,255)"/>
                <text x="0" dy=".71em" y="10" style="text-anchor: middle;"
                      class="knime-tick-label">
                    0.7
                </text>
            </g>
            <g class="tick major knime-tick" style="opacity: 1;"
               transform="translate(568,0)">
                <line y2="-505" class="knime-tick-line" x2="0"
                      stroke="rgb(255,255,255)"/>
                <text x="0" dy=".71em" y="10" style="text-anchor: middle;"
                      class="knime-tick-label">
                    0.8
                </text>
            </g>
            <g class="tick major knime-tick" style="opacity: 1;"
               transform="translate(639,0)">
                <line y2="-505" class="knime-tick-line" x2="0"
                      stroke="rgb(255,255,255)"/>
                <text x="0" dy=".71em" y="10" style="text-anchor: middle;"
                      class="knime-tick-label">
                    0.9
                </text>
            </g>
            <g class="tick major knime-tick" style="opacity: 1;"
               transform="translate(710,0)">
                <line y2="-505" class="knime-tick-line" x2="0"
                      stroke="rgb(255,255,255)"/>
                <text x="0" dy=".71em" y="10" style="text-anchor: middle;"
                      class="knime-tick-label">
                    1.0
                </text>
            </g>
            <path fill="none" stroke-width="1" d="M0,0V0H710V0" class="domain"
                  stroke="rgb(255,255,255)"/>
        </g>
        <g class="y axis knime-y knime-axis">
            <g class="tick major knime-tick" style="opacity: 1;"
               transform="translate(0,505)">
                <line y2="0" class="knime-tick-line" x2="710"
                      stroke="rgb(255,255,255)"/>
                <text x="-10" dy=".32em" y="0" style="text-anchor: end;"
                      class="knime-tick-label">
                    0.0
                </text>
            </g>
            <g class="tick major knime-tick" style="opacity: 1;"
               transform="translate(0,454.5)">
                <line y2="0" class="knime-tick-line" x2="710"
                      stroke="rgb(255,255,255)"/>
                <text x="-10" dy=".32em" y="0" style="text-anchor: end;"
                      class="knime-tick-label">
                    0.1
                </text>
            </g>
            <g class="tick major knime-tick" style="opacity: 1;"
               transform="translate(0,404)">
                <line y2="0" class="knime-tick-line" x2="710"
                      stroke="rgb(255,255,255)"/>
                <text x="-10" dy=".32em" y="0" style="text-anchor: end;"
                      class="knime-tick-label">
                    0.2
                </text>
            </g>
            <g class="tick major knime-tick" style="opacity: 1;"
               transform="translate(0,353.5)">
                <line y2="0" class="knime-tick-line" x2="710"
                      stroke="rgb(255,255,255)"/>
                <text x="-10" dy=".32em" y="0" style="text-anchor: end;"
                      class="knime-tick-label">
                    0.3
                </text>
            </g>
            <g class="tick major knime-tick" style="opacity: 1;"
               transform="translate(0,303)">
                <line y2="0" class="knime-tick-line" x2="710"
                      stroke="rgb(255,255,255)"/>
                <text x="-10" dy=".32em" y="0" style="text-anchor: end;"
                      class="knime-tick-label">
                    0.4
                </text>
            </g>
            <g class="tick major knime-tick" style="opacity: 1;"
               transform="translate(0,252.5)">
                <line y2="0" class="knime-tick-line" x2="710"
                      stroke="rgb(255,255,255)"/>
                <text x="-10" dy=".32em" y="0" style="text-anchor: end;"
                      class="knime-tick-label">
                    0.5
                </text>
            </g>
            <g class="tick major knime-tick" style="opacity: 1;"
               transform="translate(0,202)">
                <line y2="0" class="knime-tick-line" x2="710"
                      stroke="rgb(255,255,255)"/>
                <text x="-10" dy=".32em" y="0" style="text-anchor: end;"
                      class="knime-tick-label">
                    0.6
                </text>
            </g>
            <g class="tick major knime-tick" style="opacity: 1;"
               transform="translate(0,151.5)">
                <line y2="0" class="knime-tick-line" x2="710"
                      stroke="rgb(255,255,255)"/>
                <text x="-10" dy=".32em" y="0" style="text-anchor: end;"
                      class="knime-tick-label">
                    0.7
                </text>
            </g>
            <g class="tick major knime-tick" style="opacity: 1;"
               transform="translate(0,101)">
                <line y2="0" class="knime-tick-line" x2="710"
                      stroke="rgb(255,255,255)"/>
                <text x="-10" dy=".32em" y="0" style="text-anchor: end;"
                      class="knime-tick-label">
                    0.8
                </text>
            </g>
            <g class="tick major knime-tick" style="opacity: 1;"
               transform="translate(0,50.5)">
                <line y2="0" class="knime-tick-line" x2="710"
                      stroke="rgb(255,255,255)"/>
                <text x="-10" dy=".32em" y="0" style="text-anchor: end;"
                      class="knime-tick-label">
                    0.9
                </text>
            </g>
            <g class="tick major knime-tick" style="opacity: 1;"
               transform="translate(0,0)">
                <line y2="0" class="knime-tick-line" x2="710"
                      stroke="rgb(255,255,255)"/>
                <text x="-10" dy=".32em" y="0" style="text-anchor: end;"
                      class="knime-tick-label">
                    1.0
                </text>
            </g>
            <path fill="none" stroke-width="1" d="M0,0H0V505H0" class="domain"
                  stroke="rgb(255,255,255)"/>
        </g>
        <text x="700" id="xtitle" y="550"
              class="x label knime-x knime-axis-label" text-anchor="end">
            False Positive Rate
        </text>
        <text dy=".75em" id="ytitle" y="-55"
              class="y label knime-y knime-axis-label" transform="rotate(-90)"
              text-anchor="end">
            True Positive Rate
        </text>
        <g class="knime-tooltip" transform="translate(472,480)">
            <text x="0" y="0" style="fill: rgb(31, 119, 180);"
                  class="knime-tooltip-key knime-tooltip-value knime-tooltip-color">
                Prediction (Attrition) (Confidence) (0.72)
            </text>
        </g>
        <path class="line"
              style="stroke: rgb(31, 119, 180); fill: none; stroke-width: 2;"
              d="M0,505L15.106382978723405,505L15.106382978723405,502.95546558704456L15.106382978723405,500.91093117408906L15.106382978723405,498.8663967611336L15.106382978723405,496.8218623481781L15.106382978723405,494.7773279352227L15.106382978723405,492.73279352226723L15.106382978723405,490.68825910931173L15.106382978723405,488.6437246963563L15.106382978723405,486.5991902834008L15.106382978723405,484.55465587044534L15.106382978723405,482.5101214574899L15.106382978723405,480.4655870445344L15.106382978723405,478.42105263157896L15.106382978723405,476.37651821862346L15.106382978723405,474.331983805668L15.106382978723405,472.2874493927126L15.106382978723405,470.2429149797571L15.106382978723405,468.19838056680163L15.106382978723405,466.15384615384613L15.106382978723405,464.1093117408907L15.106382978723405,462.06477732793525L15.106382978723405,460.02024291497975L15.106382978723405,457.9757085020243L15.106382978723405,455.9311740890688L15.106382978723405,453.88663967611336L15.106382978723405,451.8421052631579L15.106382978723405,449.7975708502024L15.106382978723405,447.753036437247L15.106382978723405,445.7085020242915L15.106382978723405,443.66396761133603L15.106382978723405,441.6194331983806L15.106382978723405,439.5748987854251L15.106382978723405,437.53036437246965L15.106382978723405,435.48582995951415L30.21276595744681,435.48582995951415L45.31914893617021,435.48582995951415L45.31914893617021,433.4412955465587L45.31914893617021,431.39676113360326L45.31914893617021,429.35222672064776L45.31914893617021,427.3076923076923L45.31914893617021,425.2631578947369L45.31914893617021,423.2186234817814L45.31914893617021,421.1740890688259L45.31914893617021,419.12955465587044L45.31914893617021,417.085020242915L45.31914893617021,415.0404858299595L45.31914893617021,412.99595141700405L45.31914893617021,410.9514170040486L45.31914893617021,408.9068825910931L45.31914893617021,406.86234817813767L45.31914893617021,404.81781376518217L45.31914893617021,402.7732793522267L45.31914893617021,400.7287449392712L45.31914893617021,398.6842105263158L45.31914893617021,396.63967611336034L45.31914893617021,394.59514170040484L45.31914893617021,392.5506072874494L45.31914893617021,390.50607287449395L45.31914893617021,388.46153846153845L45.31914893617021,386.417004048583L45.31914893617021,384.3724696356275L45.31914893617021,382.32793522267207L45.31914893617021,380.28340080971657L45.31914893617021,378.2388663967611L45.31914893617021,376.1943319838057L45.31914893617021,374.1497975708502L45.31914893617021,372.10526315789474L45.31914893617021,370.0607287449393L45.31914893617021,368.0161943319838L45.31914893617021,365.97165991902835L45.31914893617021,363.92712550607285L45.31914893617021,361.8825910931174L45.31914893617021,359.8380566801619L45.31914893617021,357.7935222672065L60.42553191489362,357.7935222672065L60.42553191489362,355.748987854251L60.42553191489362,353.7044534412955L75.53191489361703,353.7044534412955L75.53191489361703,351.6599190283401L75.53191489361703,349.61538461538464L75.53191489361703,347.57085020242914L75.53191489361703,345.5263157894737L75.53191489361703,343.4817813765182L75.53191489361703,341.43724696356276L75.53191489361703,339.39271255060726L75.53191489361703,337.3481781376518L75.53191489361703,335.30364372469637L75.53191489361703,333.2591093117409L75.53191489361703,331.21457489878543L75.53191489361703,329.17004048583L75.53191489361703,327.1255060728745L75.53191489361703,325.08097165991904L75.53191489361703,323.03643724696354L75.53191489361703,320.9919028340081L75.53191489361703,318.9473684210526L75.53191489361703,316.90283400809716L75.53191489361703,314.8582995951417L75.53191489361703,312.8137651821862L90.63829787234042,312.8137651821862L90.63829787234042,310.7692307692307L90.63829787234042,308.72469635627533L90.63829787234042,306.68016194331983L90.63829787234042,304.63562753036433L90.63829787234042,302.59109311740895L90.63829787234042,300.54655870445345L90.63829787234042,298.502024291498L90.63829787234042,296.4574898785425L90.63829787234042,294.41295546558706L90.63829787234042,292.36842105263156L90.63829787234042,290.3238866396761L90.63829787234042,288.2793522267207L90.63829787234042,286.2348178137652L90.63829787234042,284.1902834008097L90.63829787234042,282.1457489878543L90.63829787234042,280.1012145748988L90.63829787234042,278.0566801619433L90.63829787234042,276.01214574898785L90.63829787234042,273.9676113360324L90.63829787234042,271.9230769230769L90.63829787234042,269.87854251012146L90.63829787234042,267.834008097166L90.63829787234042,265.7894736842105L90.63829787234042,263.744939271255L90.63829787234042,261.70040485829963L90.63829787234042,259.65587044534414L105.74468085106382,259.65587044534414L105.74468085106382,257.61133603238864L105.74468085106382,255.5668016194332L105.74468085106382,253.52226720647775L105.74468085106382,251.47773279352228L105.74468085106382,249.4331983805668L105.74468085106382,247.3886639676113L105.74468085106382,245.34412955465586L105.74468085106382,243.29959514170042L105.74468085106382,241.25506072874492L105.74468085106382,239.21052631578948L105.74468085106382,237.16599190283398L105.74468085106382,235.12145748987854L105.74468085106382,233.0769230769231L105.74468085106382,231.0323886639676L105.74468085106382,228.9878542510121L105.74468085106382,226.9433198380567L120.85106382978724,226.9433198380567L120.85106382978724,224.8987854251012L120.85106382978724,222.8542510121457L120.85106382978724,220.80971659919027L120.85106382978724,218.76518218623482L120.85106382978724,216.72064777327938L120.85106382978724,214.67611336032388L120.85106382978724,212.63157894736838L120.85106382978724,210.587044534413L120.85106382978724,208.5425101214575L120.85106382978724,206.497975708502L135.95744680851064,206.497975708502L135.95744680851064,204.45344129554655L151.06382978723406,204.45344129554655L151.06382978723406,202.4089068825911L166.17021276595744,202.4089068825911L166.17021276595744,200.3643724696356L181.27659574468083,200.3643724696356L181.27659574468083,198.31983805668017L181.27659574468083,196.27530364372473L196.38297872340425,196.27530364372473L196.38297872340425,194.23076923076923L196.38297872340425,192.18623481781378L196.38297872340425,190.14170040485828L211.48936170212764,190.14170040485828L211.48936170212764,188.09716599190284L211.48936170212764,186.0526315789474L211.48936170212764,184.0080971659919L211.48936170212764,181.9635627530364L211.48936170212764,179.919028340081L211.48936170212764,177.8744939271255L211.48936170212764,175.82995951417L211.48936170212764,173.78542510121457L211.48936170212764,171.74089068825913L226.59574468085108,171.74089068825913L241.70212765957447,171.74089068825913L241.70212765957447,169.69635627530363L256.8085106382979,169.69635627530363L256.8085106382979,167.65182186234819L256.8085106382979,165.6072874493927L256.8085106382979,163.56275303643724L256.8085106382979,161.5182186234818L271.9148936170213,161.5182186234818L271.9148936170213,159.4736842105263L271.9148936170213,157.42914979757086L271.9148936170213,155.38461538461542L271.9148936170213,153.34008097165992L271.9148936170213,151.29554655870447L271.9148936170213,149.25101214574897L271.9148936170213,147.20647773279353L271.9148936170213,145.1619433198381L271.9148936170213,143.1174089068826L271.9148936170213,141.0728744939271L271.9148936170213,139.0283400809717L271.9148936170213,136.9838056680162L287.02127659574467,136.9838056680162L287.02127659574467,134.9392712550607L302.1276595744681,134.9392712550607L302.1276595744681,132.89473684210526L302.1276595744681,130.85020242914982L302.1276595744681,128.80566801619432L302.1276595744681,126.76113360323887L302.1276595744681,124.71659919028338L302.1276595744681,122.67206477732793L317.2340425531915,122.67206477732793L317.2340425531915,120.62753036437249L317.2340425531915,118.58299595141699L317.2340425531915,116.53846153846149L332.3404255319149,116.53846153846149L332.3404255319149,114.4939271255061L347.4468085106383,114.4939271255061L347.4468085106383,112.4493927125506L347.4468085106383,110.4048582995951L347.4468085106383,108.36032388663966L347.4468085106383,106.31578947368422L362.55319148936167,106.31578947368422L362.55319148936167,104.27125506072872L362.55319148936167,102.22672064777328L362.55319148936167,100.18218623481783L377.6595744680851,100.18218623481783L377.6595744680851,98.13765182186233L392.7659574468085,98.13765182186233L392.7659574468085,96.09311740890689L407.87234042553195,96.09311740890689L407.87234042553195,94.04858299595139L407.87234042553195,92.004048582996L407.87234042553195,89.9595141700405L407.87234042553195,87.914979757085L422.9787234042553,87.914979757085L438.0851063829787,87.914979757085L438.0851063829787,85.87044534412956L438.0851063829787,83.82591093117412L438.0851063829787,81.78137651821862L438.0851063829787,79.73684210526318L453.19148936170217,79.73684210526318L453.19148936170217,77.69230769230768L453.19148936170217,75.64777327935224L453.19148936170217,73.6032388663968L453.19148936170217,71.5587044534413L468.2978723404255,71.5587044534413L468.2978723404255,69.5141700404858L468.2978723404255,67.46963562753041L483.40425531914894,67.46963562753041L498.51063829787233,67.46963562753041L498.51063829787233,65.42510121457491L498.51063829787233,63.38056680161941L498.51063829787233,61.336032388663966L498.51063829787233,59.29149797570852L498.51063829787233,57.246963562753024L498.51063829787233,55.20242914979758L498.51063829787233,53.15789473684208L513.6170212765958,53.15789473684208L513.6170212765958,51.11336032388664L513.6170212765958,49.068825910931196L528.7234042553191,49.068825910931196L543.8297872340426,49.068825910931196L558.936170212766,49.068825910931196L558.936170212766,47.024291497975696L558.936170212766,44.979757085020196L558.936170212766,42.93522267206481L558.936170212766,40.89068825910931L558.936170212766,38.84615384615381L558.936170212766,36.80161943319837L558.936170212766,34.757085020242926L574.0425531914893,34.757085020242926L589.1489361702128,34.757085020242926L589.1489361702128,32.712550607287426L589.1489361702128,30.668016194331983L589.1489361702128,28.623481781376483L604.2553191489362,28.623481781376483L619.3617021276596,28.623481781376483L619.3617021276596,26.578947368421098L619.3617021276596,24.534412955465598L619.3617021276596,22.489878542510098L634.468085106383,22.489878542510098L649.5744680851063,22.489878542510098L664.6808510638298,22.489878542510098L664.6808510638298,20.445344129554655L664.6808510638298,18.400809716599213L664.6808510638298,16.356275303643713L664.6808510638298,14.31174089068827L664.6808510638298,12.26720647773277L679.7872340425532,12.26720647773277L679.7872340425532,10.222672064777328L679.7872340425532,8.178137651821885L679.7872340425532,6.133603238866385L679.7872340425532,4.089068825910886L679.7872340425532,2.0445344129554996L679.7872340425532,0L694.8936170212766,0L710,0"/>
        <g class="knime-legend" transform="translate(0,575)">
            <text class="knime-legend-label" x="20">
                Prediction (Attrition) (Confidence)
            </text>
            <circle fill="#1f77b4" r="5" class="knime-legend-symbol" cx="5"
                    cy="-5"/>
        </g>
        <path class="line" style="stroke: black; fill: none; stroke-width: 2;"
              d="M0,505L710,0"/>
        <g class="knime-legend" transform="translate(207,575)">
            <text class="knime-legend-label" x="20">
                random
            </text>
            <circle fill="black" r="5" class="knime-legend-symbol" cx="5"
                    cy="-5"/>
        </g>
    </g>
    <g transform="translate(70,0)"/>
</svg>