
<svg stroke-dasharray="none" shape-rendering="auto"
     xmlns="http://www.w3.org/2000/svg" font-family="&apos;Dialog&apos;"
     text-rendering="auto" width="6" fill-opacity="1"
     contentScriptType="text/ecmascript" color-interpolation="auto"
     color-rendering="auto" preserveAspectRatio="xMidYMid meet" font-size="12px"
     fill="black" xmlns:xlink="http://www.w3.org/1999/xlink" stroke="black"
     image-rendering="auto" stroke-miterlimit="10" zoomAndPan="magnify"
     version="1.0" stroke-linecap="square" stroke-linejoin="miter"
     contentStyleType="text/css" font-style="normal" stroke-width="1"
     height="100" stroke-dashoffset="0" font-weight="normal" stroke-opacity="1">
    <!--Generated by the Batik Graphics2D SVG Generator-->
    <defs id="genericDefs"/>
    <g>
        <g fill="rgb(170,204,255)" stroke="rgb(170,204,255)">
            <rect x="5" width="1" y="83" height="17" stroke="none"/>
            <rect x="4" width="1" y="80" height="20" stroke="none"/>
            <rect x="3" width="1" y="77" height="23" stroke="none"/>
            <rect x="2" width="1" y="75" height="25" stroke="none"/>
            <rect x="1" width="1" y="58" height="42" stroke="none"/>
            <rect x="0" width="1" y="49" height="51" stroke="none"/>
            <line y2="100" fill="none" x1="0" x2="6" y1="100"
                  stroke="rgb(64,64,64)"/>
            <line fill="none" x1="5" x2="5" y1="83" y2="100"
                  stroke="rgb(64,64,64)" stroke-width="1.5"/>
            <line fill="none" x1="5" x2="6" y1="83" y2="83"
                  stroke="rgb(64,64,64)" stroke-width="1.5"/>
            <line fill="none" x1="6" x2="6" y1="83" y2="100"
                  stroke="rgb(64,64,64)" stroke-width="1.5"/>
            <line fill="none" x1="4" x2="4" y1="80" y2="100"
                  stroke="rgb(64,64,64)" stroke-width="1.5"/>
            <line fill="none" x1="4" x2="5" y1="80" y2="80"
                  stroke="rgb(64,64,64)" stroke-width="1.5"/>
            <line fill="none" x1="5" x2="5" y1="80" y2="100"
                  stroke="rgb(64,64,64)" stroke-width="1.5"/>
            <line fill="none" x1="3" x2="3" y1="77" y2="100"
                  stroke="rgb(64,64,64)" stroke-width="1.5"/>
            <line fill="none" x1="3" x2="4" y1="77" y2="77"
                  stroke="rgb(64,64,64)" stroke-width="1.5"/>
            <line fill="none" x1="4" x2="4" y1="77" y2="100"
                  stroke="rgb(64,64,64)" stroke-width="1.5"/>
            <line fill="none" x1="2" x2="2" y1="75" y2="100"
                  stroke="rgb(64,64,64)" stroke-width="1.5"/>
            <line fill="none" x1="2" x2="3" y1="75" y2="75"
                  stroke="rgb(64,64,64)" stroke-width="1.5"/>
            <line fill="none" x1="3" x2="3" y1="75" y2="100"
                  stroke="rgb(64,64,64)" stroke-width="1.5"/>
            <line fill="none" x1="1" x2="1" y1="58" y2="100"
                  stroke="rgb(64,64,64)" stroke-width="1.5"/>
            <line fill="none" x1="1" x2="2" y1="58" y2="58"
                  stroke="rgb(64,64,64)" stroke-width="1.5"/>
            <line fill="none" x1="2" x2="2" y1="58" y2="100"
                  stroke="rgb(64,64,64)" stroke-width="1.5"/>
            <line fill="none" x1="0" x2="0" y1="49" y2="100"
                  stroke="rgb(64,64,64)" stroke-width="1.5"/>
            <line fill="none" x1="0" x2="1" y1="49" y2="49"
                  stroke="rgb(64,64,64)" stroke-width="1.5"/>
            <line fill="none" x1="1" x2="1" y1="49" y2="100"
                  stroke="rgb(64,64,64)" stroke-width="1.5"/>
            <text x="0" y="0" transform="translate(6,0) rotate(90)" fill="black"
                  stroke="none" stroke-width="1.5" xml:space="preserve">Human Resources</text><text x="69"
                  y="1" transform="translate(6,0) rotate(90)" fill="black"
                  stroke="none" stroke-width="1.5" xml:space="preserve">Other</text><text x="5"
                  y="2" transform="translate(6,0) rotate(90)" fill="black"
                  stroke="none" stroke-width="1.5" xml:space="preserve">Technical Degree</text><text x="47"
                  y="3" transform="translate(6,0) rotate(90)" fill="black"
                  stroke="none" stroke-width="1.5" xml:space="preserve">Marketing</text><text x="58"
                  y="4" transform="translate(6,0) rotate(90)" fill="black"
                  stroke="none" stroke-width="1.5" xml:space="preserve">Medical</text><text x="28"
                  y="5" transform="translate(6,0) rotate(90)" fill="black"
                  stroke="none" stroke-width="1.5" xml:space="preserve">Life Sciences</text>
        </g>
    </g>
</svg>