
<svg stroke-dasharray="none" shape-rendering="auto"
     xmlns="http://www.w3.org/2000/svg" font-family="&apos;Dialog&apos;"
     text-rendering="auto" width="6" fill-opacity="1"
     contentScriptType="text/ecmascript" color-interpolation="auto"
     color-rendering="auto" preserveAspectRatio="xMidYMid meet" font-size="12px"
     fill="black" xmlns:xlink="http://www.w3.org/1999/xlink" stroke="black"
     image-rendering="auto" stroke-miterlimit="10" zoomAndPan="magnify"
     version="1.0" stroke-linecap="square" stroke-linejoin="miter"
     contentStyleType="text/css" font-style="normal" stroke-width="1"
     height="100" stroke-dashoffset="0" font-weight="normal" stroke-opacity="1">
    <!--Generated by the Batik Graphics2D SVG Generator-->
    <defs id="genericDefs"/>
    <g>
        <g fill="rgb(170,204,255)" stroke="rgb(170,204,255)">
            <rect x="5" width="1" y="81" height="19" stroke="none"/>
            <rect x="4" width="1" y="80" height="20" stroke="none"/>
            <rect x="4" width="1" y="80" height="20" stroke="none"/>
            <rect x="3" width="1" y="79" height="21" stroke="none"/>
            <rect x="2" width="1" y="77" height="23" stroke="none"/>
            <rect x="2" width="1" y="76" height="24" stroke="none"/>
            <rect x="1" width="1" y="70" height="30" stroke="none"/>
            <rect x="0" width="1" y="68" height="32" stroke="none"/>
            <rect x="0" width="1" y="66" height="34" stroke="none"/>
            <line y2="100" fill="none" x1="0" x2="6" y1="100"
                  stroke="rgb(64,64,64)"/>
            <line fill="none" x1="5" x2="5" y1="81" y2="100"
                  stroke="rgb(64,64,64)" stroke-width="1.5"/>
            <line fill="none" x1="5" x2="6" y1="81" y2="81"
                  stroke="rgb(64,64,64)" stroke-width="1.5"/>
            <line fill="none" x1="6" x2="6" y1="81" y2="100"
                  stroke="rgb(64,64,64)" stroke-width="1.5"/>
            <line fill="none" x1="4" x2="4" y1="80" y2="100"
                  stroke="rgb(64,64,64)" stroke-width="1.5"/>
            <line fill="none" x1="4" x2="5" y1="80" y2="80"
                  stroke="rgb(64,64,64)" stroke-width="1.5"/>
            <line fill="none" x1="5" x2="5" y1="80" y2="100"
                  stroke="rgb(64,64,64)" stroke-width="1.5"/>
            <line fill="none" x1="4" x2="4" y1="80" y2="100"
                  stroke="rgb(64,64,64)" stroke-width="1.5"/>
            <line fill="none" x1="4" x2="4" y1="80" y2="80"
                  stroke="rgb(64,64,64)" stroke-width="1.5"/>
            <line fill="none" x1="4" x2="4" y1="80" y2="100"
                  stroke="rgb(64,64,64)" stroke-width="1.5"/>
            <line fill="none" x1="3" x2="3" y1="79" y2="100"
                  stroke="rgb(64,64,64)" stroke-width="1.5"/>
            <line fill="none" x1="3" x2="4" y1="79" y2="79"
                  stroke="rgb(64,64,64)" stroke-width="1.5"/>
            <line fill="none" x1="4" x2="4" y1="79" y2="100"
                  stroke="rgb(64,64,64)" stroke-width="1.5"/>
            <line fill="none" x1="2" x2="2" y1="77" y2="100"
                  stroke="rgb(64,64,64)" stroke-width="1.5"/>
            <line fill="none" x1="2" x2="3" y1="77" y2="77"
                  stroke="rgb(64,64,64)" stroke-width="1.5"/>
            <line fill="none" x1="3" x2="3" y1="77" y2="100"
                  stroke="rgb(64,64,64)" stroke-width="1.5"/>
            <line fill="none" x1="2" x2="2" y1="76" y2="100"
                  stroke="rgb(64,64,64)" stroke-width="1.5"/>
            <line fill="none" x1="2" x2="2" y1="76" y2="76"
                  stroke="rgb(64,64,64)" stroke-width="1.5"/>
            <line fill="none" x1="2" x2="2" y1="76" y2="100"
                  stroke="rgb(64,64,64)" stroke-width="1.5"/>
            <line fill="none" x1="1" x2="1" y1="70" y2="100"
                  stroke="rgb(64,64,64)" stroke-width="1.5"/>
            <line fill="none" x1="1" x2="2" y1="70" y2="70"
                  stroke="rgb(64,64,64)" stroke-width="1.5"/>
            <line fill="none" x1="2" x2="2" y1="70" y2="100"
                  stroke="rgb(64,64,64)" stroke-width="1.5"/>
            <line fill="none" x1="0" x2="0" y1="68" y2="100"
                  stroke="rgb(64,64,64)" stroke-width="1.5"/>
            <line fill="none" x1="0" x2="1" y1="68" y2="68"
                  stroke="rgb(64,64,64)" stroke-width="1.5"/>
            <line fill="none" x1="1" x2="1" y1="68" y2="100"
                  stroke="rgb(64,64,64)" stroke-width="1.5"/>
            <line fill="none" x1="0" x2="0" y1="66" y2="100"
                  stroke="rgb(64,64,64)" stroke-width="1.5"/>
            <line fill="none" x1="0" x2="0" y1="66" y2="66"
                  stroke="rgb(64,64,64)" stroke-width="1.5"/>
            <line fill="none" x1="0" x2="0" y1="66" y2="100"
                  stroke="rgb(64,64,64)" stroke-width="1.5"/>
            <text x="0" y="0" transform="translate(6,0) rotate(90)" fill="black"
                  stroke="none" stroke-width="1.5" xml:space="preserve">Human Resources</text><text x="3"
                  y="1" transform="translate(6,0) rotate(90)" fill="black"
                  stroke="none" stroke-width="1.5" xml:space="preserve">Research Director</text><text x="-15"
                  y="1" transform="translate(6,0) rotate(90)" fill="black"
                  stroke="none" stroke-width="1.5" xml:space="preserve">Sales Representative</text><text x="52"
                  y="2" transform="translate(6,0) rotate(90)" fill="black"
                  stroke="none" stroke-width="1.5" xml:space="preserve">Manager</text><text x="-43"
                  y="3" transform="translate(6,0) rotate(90)" fill="black"
                  stroke="none" stroke-width="1.5" xml:space="preserve">Healthcare Representative</text><text x="-22"
                  y="3" transform="translate(6,0) rotate(90)" fill="black"
                  stroke="none" stroke-width="1.5" xml:space="preserve">Manufacturing Director</text><text x="-19"
                  y="4" transform="translate(6,0) rotate(90)" fill="black"
                  stroke="none" stroke-width="1.5" xml:space="preserve">Laboratory Technician</text><text x="-1"
                  y="5" transform="translate(6,0) rotate(90)" fill="black"
                  stroke="none" stroke-width="1.5" xml:space="preserve">Research Scientist</text><text x="14"
                  y="5" transform="translate(6,0) rotate(90)" fill="black"
                  stroke="none" stroke-width="1.5" xml:space="preserve">Sales Executive</text>
        </g>
    </g>
</svg>