
<svg stroke-dasharray="none" shape-rendering="auto"
     xmlns="http://www.w3.org/2000/svg" font-family="&apos;Dialog&apos;"
     text-rendering="auto" width="6" fill-opacity="1"
     contentScriptType="text/ecmascript" color-interpolation="auto"
     color-rendering="auto" preserveAspectRatio="xMidYMid meet" font-size="12px"
     fill="black" xmlns:xlink="http://www.w3.org/1999/xlink" stroke="black"
     image-rendering="auto" stroke-miterlimit="10" zoomAndPan="magnify"
     version="1.0" stroke-linecap="square" stroke-linejoin="miter"
     contentStyleType="text/css" font-style="normal" stroke-width="1"
     height="100" stroke-dashoffset="0" font-weight="normal" stroke-opacity="1">
    <!--Generated by the Batik Graphics2D SVG Generator-->
    <defs id="genericDefs"/>
    <g>
        <g fill="rgb(170,204,255)" stroke="rgb(170,204,255)">
            <rect x="4" width="2" y="69" height="31" stroke="none"/>
            <rect x="3" width="2" y="67" height="33" stroke="none"/>
            <rect x="1" width="2" y="60" height="40" stroke="none"/>
            <rect x="0" width="2" y="58" height="42" stroke="none"/>
            <line y2="100" fill="none" x1="0" x2="6" y1="100"
                  stroke="rgb(64,64,64)"/>
            <line fill="none" x1="4" x2="4" y1="69" y2="100"
                  stroke="rgb(64,64,64)" stroke-width="1.5"/>
            <line fill="none" x1="4" x2="6" y1="69" y2="69"
                  stroke="rgb(64,64,64)" stroke-width="1.5"/>
            <line fill="none" x1="6" x2="6" y1="69" y2="100"
                  stroke="rgb(64,64,64)" stroke-width="1.5"/>
            <line fill="none" x1="3" x2="3" y1="67" y2="100"
                  stroke="rgb(64,64,64)" stroke-width="1.5"/>
            <line fill="none" x1="3" x2="4" y1="67" y2="67"
                  stroke="rgb(64,64,64)" stroke-width="1.5"/>
            <line fill="none" x1="4" x2="4" y1="67" y2="100"
                  stroke="rgb(64,64,64)" stroke-width="1.5"/>
            <line fill="none" x1="1" x2="1" y1="60" y2="100"
                  stroke="rgb(64,64,64)" stroke-width="1.5"/>
            <line fill="none" x1="1" x2="3" y1="60" y2="60"
                  stroke="rgb(64,64,64)" stroke-width="1.5"/>
            <line fill="none" x1="3" x2="3" y1="60" y2="100"
                  stroke="rgb(64,64,64)" stroke-width="1.5"/>
            <line fill="none" x1="0" x2="0" y1="58" y2="100"
                  stroke="rgb(64,64,64)" stroke-width="1.5"/>
            <line fill="none" x1="0" x2="1" y1="58" y2="58"
                  stroke="rgb(64,64,64)" stroke-width="1.5"/>
            <line fill="none" x1="1" x2="1" y1="58" y2="100"
                  stroke="rgb(64,64,64)" stroke-width="1.5"/>
            <text x="93" y="1" transform="translate(6,0) rotate(90)"
                  fill="black" stroke="none" stroke-width="1.5"
                  xml:space="preserve">1</text><text x="93" y="2"
                  transform="translate(6,0) rotate(90)" fill="black"
                  stroke="none" stroke-width="1.5" xml:space="preserve">2</text><text x="93"
                  y="4" transform="translate(6,0) rotate(90)" fill="black"
                  stroke="none" stroke-width="1.5" xml:space="preserve">4</text><text x="93"
                  y="5" transform="translate(6,0) rotate(90)" fill="black"
                  stroke="none" stroke-width="1.5" xml:space="preserve">3</text>
        </g>
    </g>
</svg>